<?xml version="1.0" standalone="no"?>
<!DOCTYPE svg PUBLIC "-//W3C//DTD SVG 20010904//EN"
 "http://www.w3.org/TR/2001/REC-SVG-20010904/DTD/svg10.dtd">
<svg version="1.0" xmlns="http://www.w3.org/2000/svg"
 width="700.000000pt" height="700.000000pt" viewBox="0 0 700.000000 700.000000"
 preserveAspectRatio="xMidYMid meet">
<metadata>
Created by potrace 1.14, written by Peter Selinger 2001-2017
</metadata>
<g transform="translate(0.000000,700.000000) scale(0.100000,-0.100000)"
fill="#000000" stroke="none">
<path d="M3030 6990 c-876 -67 -1528 -293 -2010 -698 -569 -477 -891 -1181
-997 -2177 -26 -246 -26 -984 0 -1230 94 -886 356 -1531 812 -2004 500 -519
1218 -801 2215 -871 185 -13 712 -13 900 0 1931 132 2904 1109 3040 3050 13
187 13 693 0 880 -111 1580 -782 2523 -2058 2889 -234 67 -516 118 -842 152
-134 14 -908 20 -1060 9z m685 -1751 c357 -41 641 -217 781 -485 70 -133 111
-279 135 -476 14 -125 6 -1741 -10 -1912 -7 -65 -10 -120 -9 -121 2 -1 55 1
118 5 63 5 161 10 218 13 l102 5 0 -209 0 -209 -569 0 -568 0 -8 48 c-4 26
-10 95 -14 154 -4 59 -10 110 -14 114 -3 4 -39 -24 -79 -61 -337 -312 -846
-440 -1267 -319 -331 96 -543 351 -582 702 -25 227 34 455 165 629 220 292
638 504 1211 613 140 26 340 50 427 50 106 0 98 -20 98 240 0 387 -44 580
-159 704 -79 84 -153 119 -288 136 -188 24 -447 -56 -566 -175 l-56 -56 30
-47 c62 -100 65 -253 7 -375 -41 -85 -92 -141 -157 -170 -63 -28 -217 -35
-292 -13 -154 44 -245 171 -256 357 -17 279 152 518 486 686 89 45 283 113
391 137 232 51 482 63 725 35z"/>
<path d="M3725 3393 c-16 -2 -85 -15 -153 -29 -290 -58 -504 -154 -638 -288
-117 -118 -159 -226 -152 -394 6 -133 35 -208 108 -276 95 -89 199 -122 360
-113 194 11 371 89 544 243 l46 42 0 411 0 411 -42 -1 c-24 -1 -56 -4 -73 -6z"/>
</g>
</svg>
