<?xml version="1.0" standalone="no"?>
<!DOCTYPE svg PUBLIC "-//W3C//DTD SVG 20010904//EN"
 "http://www.w3.org/TR/2001/REC-SVG-20010904/DTD/svg10.dtd">
<svg version="1.0" xmlns="http://www.w3.org/2000/svg"
 width="700.000000pt" height="700.000000pt" viewBox="0 0 700.000000 700.000000"
 preserveAspectRatio="xMidYMid meet">
<metadata>
Created by potrace 1.14, written by Peter Selinger 2001-2017
</metadata>
<g transform="translate(0.000000,700.000000) scale(0.100000,-0.100000)"
fill="#fafa00" stroke="none">
<path d="M3178 6995 c-2 -2 -52 -6 -113 -9 -60 -3 -126 -8 -145 -10 -19 -3
-66 -7 -105 -10 -38 -4 -81 -8 -95 -11 -14 -2 -61 -9 -105 -15 -44 -7 -89 -14
-100 -16 -10 -2 -37 -6 -60 -9 -132 -19 -417 -94 -592 -155 -380 -134 -728
-347 -984 -602 -88 -88 -175 -186 -224 -253 -16 -22 -32 -42 -35 -45 -25 -20
-158 -243 -225 -375 -122 -242 -217 -515 -279 -805 -23 -106 -28 -132 -41
-207 -2 -16 -7 -42 -10 -59 -2 -18 -7 -52 -10 -75 -14 -117 -26 -217 -30 -250
-27 -232 -27 -934 0 -1169 2 -19 6 -62 10 -95 21 -200 84 -553 120 -675 58
-193 113 -355 154 -453 335 -789 914 -1284 1794 -1532 93 -26 352 -82 422 -91
22 -3 51 -8 65 -10 48 -9 229 -31 310 -38 233 -21 810 -28 1025 -13 184 13
228 16 264 21 20 3 74 10 121 16 47 6 94 13 105 14 11 2 40 7 65 11 381 58
815 202 1104 366 308 174 509 346 755 644 83 100 210 311 294 485 49 102 154
366 162 409 2 9 14 55 28 101 14 47 29 101 33 120 9 40 7 34 28 120 8 36 17
79 20 95 15 82 36 205 41 245 3 25 8 56 10 70 2 14 7 57 11 95 3 39 8 86 9
105 27 271 26 938 0 1155 -2 17 -6 55 -9 85 -10 95 -23 192 -36 270 -5 30 -12
71 -15 90 -9 55 -45 220 -62 280 -8 30 -16 63 -18 72 -2 10 -20 71 -40 135
-210 674 -605 1189 -1165 1517 -41 24 -286 145 -335 166 -232 98 -619 202
-875 235 -25 3 -52 8 -60 10 -8 2 -42 6 -75 9 -33 4 -76 8 -95 11 -33 4 -95
10 -230 21 -65 5 -777 13 -782 9z"/>
</g>
</svg>
