<?xml version="1.0" standalone="no"?>
<!DOCTYPE svg PUBLIC "-//W3C//DTD SVG 20010904//EN"
 "http://www.w3.org/TR/2001/REC-SVG-20010904/DTD/svg10.dtd">
<svg version="1.0" xmlns="http://www.w3.org/2000/svg"
 width="700.000000pt" height="700.000000pt" viewBox="0 0 700.000000 700.000000"
 preserveAspectRatio="xMidYMid meet">
<metadata>
Created by potrace 1.14, written by Peter Selinger 2001-2017
</metadata>
<g transform="translate(0.000000,700.000000) scale(0.100000,-0.100000)"
fill="#000000" stroke="none">
<path d="M3045 6989 c-828 -58 -1460 -265 -1949 -637 -196 -149 -433 -408
-568 -622 -256 -402 -426 -930 -492 -1525 -49 -438 -49 -978 -1 -1410 95 -836
370 -1480 830 -1940 208 -208 414 -353 700 -491 375 -181 771 -283 1324 -340
204 -21 791 -30 1022 -15 1009 66 1711 333 2224 846 486 486 748 1131 845
2085 18 168 24 761 11 960 -68 1014 -341 1732 -856 2245 -511 511 -1205 776
-2205 845 -170 12 -712 11 -885 -1z m798 -1724 c418 -77 702 -272 860 -591 41
-83 62 -143 89 -266 21 -90 22 -125 28 -1133 7 -1104 5 -1075 55 -1289 13 -57
49 -163 80 -239 7 -16 -12 -17 -313 -17 l-321 0 -25 78 c-13 43 -32 126 -42
184 l-17 106 -86 -75 c-289 -254 -604 -366 -981 -350 -338 15 -602 119 -811
321 -215 207 -311 461 -296 781 25 506 347 854 927 1001 225 56 330 66 800 73
l435 6 -1 192 c-2 227 -16 304 -76 426 -57 113 -144 200 -258 255 -125 61
-182 74 -365 79 -184 6 -273 -7 -400 -56 -213 -82 -377 -263 -392 -432 l-6
-59 -299 0 -299 0 7 63 c39 356 314 677 722 843 131 53 264 89 402 108 135 20
457 15 583 -9z"/>
<path d="M3400 3414 c-162 -22 -294 -59 -409 -115 -85 -41 -117 -64 -175 -122
-76 -77 -126 -162 -146 -252 -16 -71 -14 -229 5 -300 52 -200 205 -354 410
-410 82 -22 301 -31 405 -16 193 29 360 107 523 245 62 52 161 174 192 237
l25 48 0 351 0 350 -362 -1 c-253 -1 -395 -5 -468 -15z"/>
</g>
</svg>
