<svg xmlns="http://www.w3.org/2000/svg" viewBox="0 0 1062 1036">
   <path d="m1062 531c0 234.6-152 433.4-362.8 503.8-27 5.2-36.5-11.3-36.5-25.5 0-17.4 0.6-74.7 0.6-145.7 0-49.5-17-81.9-36-98.3 118.3-13.2 242.4-58.1 242.4-262.1 0-57.9-20.5-105.3-54.6-142.4 5.5-13.5 23.7-67.5-5.3-140.6 0 0-44.5-14.3-145.8 54.5-42.4-11.8-87.9-17.7-133-17.9-45.1 0.2-90.6 6.1-132.9 17.9-101.4-68.8-146-54.5-146-54.5-28.9 73.1-10.7 127.1-5.2 140.6-34 37.1-54.7 84.5-54.7 142.4 0 203.5 124 249.1 241.9 262.5-15.2 13.3-28.9 36.7-33.7 71-30.3 13.6-107.2 37-154.6-44.2 0 0-28-50.9-81.3-54.7 0 0-51.9-0.6-3.6 32.3 0 0 34.8 16.3 58.9 77.7 0 0 31.2 103.2 178.9 71.2 0.2 44.3 0.7 77.7 0.7 90.3 0 14-9.7 30.4-36.2 25.6-211.1-70.3-363.2-269.3-363.2-503.9 0-293.3 237.8-531 531-531 293.2 0 531 237.7 531 531z"/>
</svg>