<svg viewBox="0 0 740 740" fill="none" xmlns="http://www.w3.org/2000/svg">
  <path d="M0 370C0 70 173 0 370 0C567 0 740 70 740 370C740 670 567 740 370 740C173 740 0 670 0 370Z" fill="#FAFA00" id='amaui-logo-background'/>

  <path d="M346.787 183H395.467L544.473 557H487.483L446.521 453.111H292.765L252.397 557H196L346.787 183ZM307.606 409.775H430.492L405.559 345.067C398.831 328.049 392.696 311.624 387.156 295.794C381.615 279.963 376.074 263.737 370.533 247.114H369.346C363.805 263.737 358.067 279.765 352.13 295.2C346.194 310.635 339.861 327.257 333.133 345.067L307.606 409.775Z" id='amaui-logo-type' fill="white"/>
</svg>
