<?xml version="1.0" standalone="no"?>
<!DOCTYPE svg PUBLIC "-//W3C//DTD SVG 20010904//EN"
 "http://www.w3.org/TR/2001/REC-SVG-20010904/DTD/svg10.dtd">
<svg version="1.0" xmlns="http://www.w3.org/2000/svg"
 width="700.000000pt" height="700.000000pt" viewBox="0 0 700.000000 700.000000"
 preserveAspectRatio="xMidYMid meet">
<metadata>
Created by potrace 1.14, written by Peter Selinger 2001-2017
</metadata>
<g transform="translate(0.000000,700.000000) scale(0.100000,-0.100000)"
fill="#000000" stroke="none">
<path d="M3100 6994 c-25 -2 -103 -9 -175 -14 -1655 -137 -2594 -965 -2854
-2515 -57 -341 -66 -474 -66 -965 0 -490 8 -609 66 -959 182 -1104 709 -1842
1589 -2224 343 -149 712 -238 1211 -293 195 -21 829 -30 1054 -15 456 31 819
96 1155 209 1182 397 1803 1322 1910 2842 13 187 13 693 0 880 -117 1674 -868
2638 -2297 2949 -363 79 -613 102 -1128 106 -231 1 -440 1 -465 -1z m620
-1714 c596 -62 974 -374 1076 -891 15 -74 18 -212 24 -1129 7 -1005 8 -1049
28 -1156 21 -111 72 -285 98 -337 l15 -27 -321 0 -320 0 -11 28 c-19 49 -39
135 -55 232 -8 52 -17 96 -19 98 -2 2 -33 -25 -70 -60 -181 -171 -423 -297
-662 -345 -122 -24 -412 -24 -537 1 -264 52 -470 159 -633 329 -158 166 -233
323 -264 556 -14 107 -6 275 21 393 89 404 417 689 935 811 213 51 309 59 774
64 l434 5 -6 202 c-6 233 -21 308 -88 436 -73 141 -218 252 -386 294 -157 41
-378 41 -537 0 -85 -21 -231 -94 -295 -148 -106 -88 -175 -202 -189 -312 l-7
-59 -296 -3 -295 -2 8 79 c24 254 202 518 470 700 127 86 362 181 534 215 167
34 395 44 574 26z"/>
<path d="M3565 3430 c-591 -34 -908 -256 -909 -640 0 -114 14 -180 62 -280 45
-97 148 -202 242 -247 121 -59 175 -68 380 -67 170 0 192 3 271 27 119 36 185
67 285 132 106 69 218 179 284 281 l50 77 -2 361 -3 361 -265 1 c-146 1 -323
-2 -395 -6z"/>
</g>
</svg>
