<?xml version="1.0" standalone="no"?>
<!DOCTYPE svg PUBLIC "-//W3C//DTD SVG 20010904//EN"
 "http://www.w3.org/TR/2001/REC-SVG-20010904/DTD/svg10.dtd">
<svg version="1.0" xmlns="http://www.w3.org/2000/svg"
 width="700.000000pt" height="700.000000pt" viewBox="0 0 700.000000 700.000000"
 preserveAspectRatio="xMidYMid meet">
<metadata>
Created by potrace 1.14, written by Peter Selinger 2001-2017
</metadata>
<g transform="translate(0.000000,700.000000) scale(0.100000,-0.100000)"
fill="#000000" stroke="none">
<path d="M3185 6993 c-1708 -81 -2687 -786 -3040 -2191 -101 -402 -139 -755
-139 -1297 -1 -473 23 -753 96 -1115 264 -1323 1061 -2088 2414 -2315 482 -81
1148 -96 1679 -39 1533 165 2412 931 2705 2356 101 496 128 1220 64 1788 -213
1923 -1344 2835 -3494 2818 -124 -1 -252 -3 -285 -5z m590 -1758 c366 -65 619
-244 750 -529 83 -180 114 -359 122 -701 5 -238 -13 -1528 -24 -1683 l-5 -74
94 6 c51 3 150 8 221 12 l127 6 0 -216 0 -216 -574 0 -574 0 -11 63 c-5 34
-13 108 -17 164 l-7 102 -56 -51 c-220 -202 -485 -328 -769 -369 -122 -17
-374 -6 -482 20 -108 27 -269 106 -338 165 -125 107 -222 259 -264 413 -29
106 -31 363 -4 468 113 436 566 754 1288 904 162 34 333 57 492 67 l109 7 -6
256 c-6 273 -18 374 -61 501 -47 138 -139 237 -262 282 -87 32 -287 32 -398 0
-111 -32 -213 -82 -269 -132 -62 -55 -73 -76 -53 -99 43 -48 72 -194 56 -283
-15 -81 -73 -190 -126 -237 -64 -57 -128 -76 -244 -75 -114 1 -185 24 -253 84
-87 77 -129 184 -128 329 0 109 13 164 61 266 140 295 584 520 1120 569 97 9
398 -3 485 -19z"/>
<path d="M3705 3384 c-136 -18 -352 -74 -460 -118 -251 -102 -417 -267 -456
-454 -14 -70 -7 -199 16 -268 36 -108 130 -193 255 -231 81 -25 243 -22 344 6
130 36 297 133 404 234 l32 31 0 408 c0 382 -1 408 -17 407 -10 -1 -63 -7
-118 -15z"/>
</g>
</svg>
